<?xml version="1.0" standalone="no"?>
<!DOCTYPE svg PUBLIC "-//W3C//DTD SVG 20010904//EN"
 "http://www.w3.org/TR/2001/REC-SVG-20010904/DTD/svg10.dtd">
<svg version="1.0" xmlns="http://www.w3.org/2000/svg"
 width="200.000000pt" height="200.000000pt" viewBox="0 0 200.000000 200.000000"
 preserveAspectRatio="xMidYMid meet">
<metadata>
Created by potrace 1.14, written by Peter Selinger 2001-2017
</metadata>
<g transform="translate(0.000000,200.000000) scale(0.100000,-0.100000)"
fill="#000000" stroke="none">
<path d="M511 1489 c-11 -31 -6 -198 6 -210 19 -19 49 7 77 70 17 38 34 62 48
67 12 3 71 6 132 6 86 0 112 -4 121 -15 8 -11 11 -145 11 -437 -1 -478 8 -430
-90 -460 -52 -16 -73 -37 -63 -64 6 -14 33 -16 247 -16 214 0 241 2 247 16 11
28 -11 48 -74 66 -49 15 -63 23 -71 46 -15 41 -11 837 5 853 13 13 213 17 250
5 11 -4 34 -35 54 -73 36 -70 45 -79 69 -63 11 7 15 32 15 102 1 51 -3 101 -7
111 -8 16 -41 17 -489 17 l-480 0 -8 -21z"/>
</g>
</svg>
